<svg width="69" height="21" viewBox="0 0 69 21" fill="none" xmlns="http://www.w3.org/2000/svg">
<path d="M20.1722 7.23414C20.766 7.82791 20.766 8.7906 20.1722 9.38437L9.38437 20.1722C8.7906 20.766 7.82791 20.766 7.23414 20.1722L0.445327 13.3834C-0.148443 12.7896 -0.148442 11.827 0.445327 11.2332L11.2332 0.445327C11.827 -0.148443 12.7896 -0.148442 13.3834 0.445328L20.1722 7.23414Z" fill="white"/>
<path d="M22.7063 9.38437C23.3 8.7906 23.3 7.82791 22.7063 7.23414L17.7145 2.24232L19.5114 0.445327C20.1052 -0.148443 21.0679 -0.148442 21.6617 0.445328L28.4505 7.23414C29.0443 7.82791 29.0443 8.7906 28.4505 9.38437L17.6626 20.1722C17.0689 20.766 16.1062 20.766 15.5124 20.1722L13.7154 18.3752L22.7063 9.38437Z" fill="white"/>
<path d="M42.8182 8.57276C42.8182 9.0838 42.7206 9.55767 42.5255 9.99437C42.3397 10.4311 42.0795 10.8074 41.745 11.1233C41.4105 11.4392 41.0203 11.6901 40.5743 11.8759C40.1283 12.0525 39.6498 12.1407 39.1387 12.1407H36.5185V15.4578H34.5394V5.00479H39.1387C39.6498 5.00479 40.1283 5.0977 40.5743 5.28354C41.0203 5.46008 41.4105 5.7063 41.745 6.02222C42.0795 6.33813 42.3397 6.71444 42.5255 7.15115C42.7206 7.58785 42.8182 8.06172 42.8182 8.57276ZM40.7973 8.57276C40.7973 8.34047 40.7508 8.12676 40.6579 7.93164C40.5743 7.72722 40.4581 7.55068 40.3095 7.40202C40.1608 7.25335 39.9842 7.13721 39.7798 7.05358C39.5754 6.96067 39.3617 6.91421 39.1387 6.91421H36.5185V10.2313H39.1387C39.3617 10.2313 39.5754 10.1895 39.7798 10.1059C39.9842 10.013 40.1608 9.89217 40.3095 9.7435C40.4581 9.59483 40.5743 9.42294 40.6579 9.22782C40.7508 9.0234 40.7973 8.80505 40.7973 8.57276Z" fill="white"/>
<path d="M50.2354 11.416C50.2354 11.0908 50.175 10.7842 50.0542 10.4961C49.9334 10.2081 49.7662 9.95721 49.5524 9.7435C49.3387 9.52979 49.0879 9.36255 48.7998 9.24175C48.5118 9.11167 48.2005 9.04663 47.866 9.04663C47.5408 9.04663 47.2342 9.11167 46.9462 9.24175C46.6581 9.36255 46.4072 9.52979 46.1935 9.7435C45.9798 9.95721 45.8079 10.2081 45.6779 10.4961C45.5571 10.7842 45.4967 11.0908 45.4967 11.416C45.4967 11.7412 45.5571 12.0525 45.6779 12.3498C45.8079 12.6378 45.9798 12.8887 46.1935 13.1024C46.4072 13.3161 46.6581 13.488 46.9462 13.6181C47.2342 13.7389 47.5408 13.7993 47.866 13.7993C48.2005 13.7993 48.5118 13.7389 48.7998 13.6181C49.0879 13.488 49.3387 13.3161 49.5524 13.1024C49.7662 12.8887 49.9334 12.6378 50.0542 12.3498C50.175 12.0525 50.2354 11.7412 50.2354 11.416ZM50.2354 14.2732H50.2075C50.0681 14.459 49.9055 14.6402 49.7197 14.8167C49.5432 14.984 49.3434 15.1326 49.1204 15.2627C48.8974 15.3928 48.6512 15.495 48.3817 15.5693C48.1123 15.653 47.8196 15.6948 47.5037 15.6948C46.9462 15.6948 46.4212 15.5879 45.9287 15.3742C45.4363 15.1605 45.0042 14.8632 44.6325 14.4822C44.2702 14.092 43.9821 13.6367 43.7684 13.1163C43.5547 12.596 43.4479 12.0292 43.4479 11.416C43.4479 10.8027 43.5547 10.236 43.7684 9.71563C43.9821 9.1953 44.2702 8.74465 44.6325 8.3637C45.0042 7.98274 45.4363 7.68541 45.9287 7.47171C46.4212 7.258 46.9462 7.15115 47.5037 7.15115C47.8196 7.15115 48.1123 7.18831 48.3817 7.26265C48.6512 7.33698 48.8974 7.43919 49.1204 7.56927C49.3434 7.69935 49.5432 7.85266 49.7197 8.0292C49.9055 8.19645 50.0681 8.37299 50.2075 8.55882H50.2354V7.38808H52.1727V15.4578H50.2354V14.2732Z" fill="white"/>
<path d="M53.8394 5.00479H55.7906V15.4578H53.8394V5.00479Z" fill="white"/>
<path d="M57.4598 15.4578V7.38808H59.2578V8.48914H59.2856C59.3786 8.32189 59.4947 8.15928 59.6341 8.00133C59.7735 7.84337 59.9268 7.704 60.094 7.58321C60.2706 7.45312 60.4657 7.35092 60.6794 7.27658C60.9024 7.19296 61.144 7.15115 61.4041 7.15115C61.9338 7.15115 62.3751 7.28587 62.7282 7.55533C63.0905 7.8155 63.3972 8.14535 63.648 8.54488C63.9175 8.18251 64.2474 7.86195 64.6376 7.58321C65.0278 7.29517 65.4692 7.15115 65.9617 7.15115C66.4077 7.15115 66.8165 7.23477 67.1881 7.40202C67.5598 7.56927 67.8804 7.80156 68.1498 8.09889C68.4193 8.38693 68.6283 8.73536 68.777 9.14419C68.9257 9.54373 69 9.98508 69 10.4682V15.4578H67.0488V10.4682C67.0488 10.2731 67.0116 10.0873 66.9373 9.91075C66.8629 9.73421 66.7607 9.58554 66.6306 9.46475C66.5006 9.33467 66.3473 9.23246 66.1707 9.15813C65.9942 9.0838 65.8083 9.04663 65.6132 9.04663C65.4181 9.04663 65.2323 9.0838 65.0557 9.15813C64.8885 9.23246 64.7398 9.33467 64.6097 9.46475C64.4796 9.58554 64.3774 9.73421 64.3031 9.91075C64.2288 10.0873 64.1916 10.2731 64.1916 10.4682V15.4578H62.2543V10.4682C62.2543 10.0687 62.1149 9.73421 61.8362 9.46475C61.5667 9.186 61.2322 9.04663 60.8327 9.04663C60.6376 9.04663 60.4517 9.0838 60.2752 9.15813C60.108 9.23246 59.9593 9.33467 59.8292 9.46475C59.6991 9.58554 59.5969 9.73421 59.5226 9.91075C59.4482 10.0873 59.4111 10.2731 59.4111 10.4682V15.4578H57.4598Z" fill="white"/>
</svg>
